<svg id="a" xmlns="http://www.w3.org/2000/svg" viewBox="0 0 1000 1000"><circle cx="500" cy="500" r="500" style="fill:#0db14b;"/><path d="M546.91,410.33c48.65.69,75.51,37.04,75.61,76.77.07,27.2.29,96.27.29,96.27h-62.91s-.41-66-.17-91.53c.08-9.48-3.81-16.21-13.26-15.99-8.88.2-12.15,6.96-12.04,15.86.3,25.11.1,92.04.1,92.04h-62.41s-.02-70.17-.57-97.78c-.79-40.85,34.15-76.24,75.36-75.64Z" style="fill:#fff; fill-rule:evenodd;"/><path d="M416.13,336.67c17.98,0,32.56,14.58,32.56,32.56s-14.58,32.56-32.56,32.56-32.56-14.58-32.56-32.56,14.58-32.56,32.56-32.56Z" style="fill:#fff; fill-rule:evenodd;"/><rect x="384.57" y="412.26" width="63.14" height="170.81" style="fill:#fff;"/><path d="M278.32,467.16c4.64-41.43,41.44-63.21,84.13-53.92v59.74c-18.95,2.48-21.61,15.6-21.58,30.52.04,21.37.56,79.94.56,79.94h-65.5s-1.72-79.48,2.39-116.28Z" style="fill:#fff; fill-rule:evenodd;"/><path d="M186.19,582.22c-5.3.26-10.64.03-16.85.03v-60.4c7.09-2.26,13.81-2.91,18.64-6.27,8.31-5.79,13.68-14.51,9.51-24.97-3.98-10-12.05-15.91-23.47-15.36-12.84.61-17.61,9.81-20.3,20.41-1,3.95-.37,8.33-.37,12.51-.02,45.63-.01,153.2-.01,153.2h-66s.64-115.71.63-166.38c-.01-46.26,37.8-82.95,84.28-84.4,46.08-1.43,81.19,28.97,89.42,63.21,13.24,55.15-18.2,105.66-75.47,108.4Z" style="fill:#fff; fill-rule:evenodd;"/><path d="M819.1,663.33c-174.75-1.5-543.17-.61-543.17-.61v-57.9s356.83,0,524.47.27c16.29.01,29.72-3.86,38.37-18.6.82-1.39,1.41-2.96,1.86-4.52.18-.69.54-1.84.38-2.63-8.83.87-18.45,2.35-27.3,2.85-32.45,1.86-47.22-19.21-52.47-44.59-3-14.55-2.02-29.92-2.89-44.92-.32-5.3-.13-17.18-.13-17.18h-52.51c-1.96,29.66,2.96,39.51,25.69,46.87v60.57c-19.64,3.47-37.7.15-53.88-10.13-26.59-16.87-37.82-42.4-37.87-73.31-.05-42.7-.01-85.41-.01-130.44,21.15-5.13,41.81-10.15,64.79-15.72v58.68h119.33s-.24,64.73.08,89.87c.18,14.33,10.06,18.37,23.65,12.36v-101.77h65.11s.54,110.85-1.33,162.74c-1.86,51.07-45.43,88.52-92.16,88.12Z" style="fill:#fff; fill-rule:evenodd;"/></svg>