<svg xmlns="http://www.w3.org/2000/svg" id="a" viewBox="0 0 144.23 58.67">
  <path fill="#FFFFFF" fill-rule="evenodd" d="M80.54 13.23c8.74.12 13.56 6.65 13.58 13.79.01 4.89.05 17.29.05 17.29h-11.3s-.07-11.85-.03-16.44c.01-1.7-.68-2.91-2.38-2.87-1.59.04-2.18 1.25-2.16 2.85.05 4.51.02 16.53.02 16.53H67.11s0-12.6-.1-17.56c-.14-7.34 6.13-13.69 13.53-13.58ZM58.05 0a5.851 5.851 0 0 1 0 11.7 5.851 5.851 0 0 1 0-11.7Z"/>
  <path fill="#FFFFFF" d="M52.38 13.58h11.34v30.68H52.38z"/>
  <path fill="#FFFFFF" fill-rule="evenodd" d="M34.3 23.44c.83-7.44 7.44-11.35 15.11-9.68v10.73c-3.4.45-3.88 2.8-3.88 5.48 0 3.84.1 14.36.1 14.36H33.87s-.31-14.27.43-20.88ZM17.75 44.1c-.95.05-1.91 0-3.03 0V33.25c1.27-.41 2.48-.52 3.35-1.13 1.49-1.04 2.46-2.61 1.71-4.48-.71-1.8-2.16-2.86-4.21-2.76-2.31.11-3.16 1.76-3.64 3.67-.18.71-.07 1.5-.07 2.25v27.51H0s.11-20.78.11-29.88c0-8.31 6.79-14.9 15.14-15.16 8.28-.26 14.58 5.2 16.06 11.35 2.38 9.9-3.27 18.98-13.56 19.47Z"/>
  <path fill="#FFFFFF" fill-rule="evenodd" d="M127.42 58.67c-31.38-.27-93.55-.11-93.55-.11v-10.4s60.09 0 90.2.05c2.93 0 5.34-.69 6.89-3.34.15-.25.25-.53.33-.81.03-.12.1-.33.07-.47-1.59.16-3.31.42-4.9.51-5.83.33-8.48-3.45-9.42-8.01-.54-2.61-.36-5.37-.52-8.07-.06-.95-.02-3.09-.02-3.09h-8.43c-.35 5.33.53 7.1 4.61 8.42v10.88c-3.53.62-6.77.03-9.68-1.82-4.78-3.03-6.79-7.62-6.8-13.17V5.81l11.64-2.82v10.54h20.43s-.04 11.63.01 16.14c.03 2.57 1.81 3.3 4.25 2.22V13.61h11.69s.1 19.91-.24 29.23c-.33 9.17-8.16 15.9-16.55 15.83Z"/>
</svg>